<svg width="140" height="140" viewBox="0 0 70 70" fill="none" xmlns="http://www.w3.org/2000/svg">
<circle cx="34.7739" cy="35" r="9" fill="white"/>
<path fill-rule="evenodd" clip-rule="evenodd" d="M69.5479 39H49.2347C47.4842 45.3424 41.673 50 34.7739 50C27.8749 50 22.0636 45.3424 20.3132 39H0C1.98489 56.4463 16.7966 70 34.7739 70C52.7513 70 67.563 56.4463 69.5479 39ZM69.6472 32C68.1255 14.0744 53.0933 0 34.7739 0C16.7966 0 1.98489 13.5537 1.9701e-08 31H20.3132C22.0636 24.6576 27.8749 20 34.7739 20C42.0308 20 48.0841 25.1533 49.4739 32H69.6472Z" fill="white"/>
</svg>
